<svg id="Layer_1" data-name="Layer 1" xmlns="http://www.w3.org/2000/svg" viewBox="0 0 886.31 886.31"><defs><style>.cls-1{fill:#44b549;}.cls-2{fill:#0e0c0d;}.cls-3{fill:#fff;}</style></defs><circle class="cls-1" cx="443.16" cy="443.16" r="443.16"/><path class="cls-2" d="M1415,1000c0,198.86-139.89,365.06-326.64,405.55l-2.71-12.46a405.47,405.47,0,0,1-85.62,9.13c-201.29,0-372.74-150.26-398.8-349.52a409.47,409.47,0,0,1-3.42-52.7H585c0-229.17,185.79-415,415-415v12.74c221.79,0,402.22,180.44,402.22,402.22Z" transform="translate(-556.84 -556.84)"/><path class="cls-1" d="M1211.87,1315.65l-14.23-21.15a354.59,354.59,0,0,0,101.2-484.93l21.47-13.73a380.07,380.07,0,0,1-108.44,519.81Z" transform="translate(-556.84 -556.84)"/><path class="cls-1" d="M685.26,1213.11A380.24,380.24,0,0,1,672.6,807.37,382,382,0,0,1,810.45,670.9L823.18,693c-109.56,63.19-177.62,180.92-177.62,307.25a352.59,352.59,0,0,0,60.81,198.57Z" transform="translate(-556.84 -556.84)"/><path class="cls-1" d="M853.71,1298.88a332,332,0,0,1-131-480.21l21.29,14A305,305,0,0,0,693.69,1001c0,117.66,65.63,223,171.27,275Z" transform="translate(-556.84 -556.84)"/><path class="cls-1" d="M1321,1085.39l-24.66-6.47a307.51,307.51,0,0,0,10-77.92c0-168.9-137.41-306.31-306.31-306.31V669.2A331.79,331.79,0,0,1,1331.8,1001,333.19,333.19,0,0,1,1321,1085.39Z" transform="translate(-556.84 -556.84)"/><path class="cls-3" d="M1250.24,879c-60.42,92.07-114.22,64.17-178.48,51.7S972,986.29,972,986.29s.07-.23.11-.34c-1.22,2.23-2.41,4.48-3.55,6.76-2.06,4-3.92,8.19-5.7,12.48a63.92,63.92,0,0,1,2.12-13.8,89.81,89.81,0,0,1,4.55-13.29,94.83,94.83,0,0,1,8.38-15.35c10-64.38-43.19-89.15-110.36-127.91-74.81-43.16-41.33-90.24-41.33-90.24S699.73,876,784.13,1000.24,975.29,1159.61,864,1346.63c0,0,75.61,43.9,197.26,22.43-31.8-135.82-23.77-187,26.59-233.12l-5.49,2c-2,.67-4,1.16-6,1.7l-3,.79c-1,.24-2,.38-3.06.57-2,.36-4.08.7-6.12,1s-4.14.3-6.19.42c-1,0-2.06.1-3.09.12s-2.07-.08-3.1-.16c-2.06-.13-4.11-.28-6.14-.53,2-.62,4-1.13,5.92-1.63,1-.26,1.95-.48,2.92-.71l2.89-.89q2.86-.85,5.73-1.64,2.82-1,5.62-1.92c.94-.31,1.88-.58,2.8-.93l2.77-1.06c1.82-.74,3.7-1.31,5.5-2.1l5.44-2.27c1.83-.72,3.58-1.62,5.38-2.42q10.71-4.92,21.14-10.68l5-2.78c23.9-12,45-25.63,64.41-43C1300.51,963.23,1250.24,879,1250.24,879Z" transform="translate(-556.84 -556.84)"/></svg>